<?xml version="1.0" encoding="iso-8859-1"?>
<!-- Generator: Adobe Illustrator 19.0.0, SVG Export Plug-In . SVG Version: 6.00 Build 0)  -->
<svg version="1.1" id="Layer_1" xmlns="http://www.w3.org/2000/svg" xmlns:xlink="http://www.w3.org/1999/xlink" x="0px" y="0px"
	 viewBox="0 0 512.005 512.005" style="enable-background:new 0 0 512.005 512.005;" xml:space="preserve">
<g>
	<g>
		<path d="M344.483,414.718c36.25-6.135,64-37.538,64-75.503c0-4.992-0.768-9.762-1.775-14.456l71.689-26.095
			c26.462-9.634,40.158-38.997,30.524-65.468L447.924,65.619c-7.322-20.104-26.607-33.613-48-33.613
			c-5.965,0-11.836,1.041-17.468,3.089L95.182,139.655c-26.462,9.634-40.158,38.997-30.524,65.468l7.612,20.924l-43.742-5.035
			c-0.981-0.111-1.954-0.171-2.935-0.171c-7.782,0-15.206,3.55-20.087,9.737c-5.495,6.963-6.997,16.282-3.959,24.619l43.571,119.697
			c3.038,8.337,10.172,14.507,18.859,16.307c1.732,0.358,3.473,0.538,5.197,0.538c6.955,0,13.705-2.842,18.586-8.004l30.268-31.974
			l7.612,20.924c7.322,20.104,26.607,33.613,48,33.613c5.965,0,11.836-1.041,17.468-3.089l73.933-26.906
			c11.093,19.977,30.541,34.645,53.837,38.596v52.301c0,7.074,5.726,12.8,12.8,12.8h180.326v-25.6H344.483V414.718z M69.164,366.146
			L25.601,246.441l56.457,6.502l26.18,71.936L69.164,366.146z M182.359,379.168c-2.876,1.05-5.82,1.544-8.713,1.544
			c-10.402,0-20.173-6.426-23.945-16.768L132.584,316.9c-0.094-0.29-0.085-0.589-0.188-0.879l-26.138-71.817
			c-0.102-0.29-0.307-0.512-0.418-0.785l-17.126-47.053c-4.813-13.218,2.005-27.844,15.224-32.657L391.212,59.151
			c2.876-1.05,5.82-1.545,8.713-1.545c10.402,0,20.173,6.426,23.945,16.768l60.996,167.578c4.813,13.218-2.005,27.844-15.223,32.657
			L182.359,379.168z M289.58,367.384l92.655-33.724c0.213,1.852,0.648,3.635,0.648,5.547c0,28.237-22.963,51.2-51.2,51.2
			C313.977,390.407,298.762,381.097,289.58,367.384z"/>
	</g>
</g>
<g>
</g>
<g>
</g>
<g>
</g>
<g>
</g>
<g>
</g>
<g>
</g>
<g>
</g>
<g>
</g>
<g>
</g>
<g>
</g>
<g>
</g>
<g>
</g>
<g>
</g>
<g>
</g>
<g>
</g>
</svg>
